<svg id="Icons" height="512" viewBox="0 0 64 64" width="512" xmlns="http://www.w3.org/2000/svg"><path d="m60 25h-36a3 3 0 0 0 -3 3v23a3 3 0 0 0 3 3h13v4h-1a4 4 0 0 0 -4 4 1 1 0 0 0 1 1h18a1 1 0 0 0 1-1 4 4 0 0 0 -4-4h-1v-4h13a3 3 0 0 0 3-3v-23a3 3 0 0 0 -3-3zm-10.269 36h-15.462a2 2 0 0 1 1.731-1h12a2 2 0 0 1 1.731 1zm11.269-10a1 1 0 0 1 -1 1h-36a1 1 0 0 1 -1-1v-23a1 1 0 0 1 1-1h36a1 1 0 0 1 1 1z" fill="#c4a2fc"/><path d="m58 29h-32a1 1 0 0 0 -1 1v19a1 1 0 0 0 1 1h32a1 1 0 0 0 1-1v-19a1 1 0 0 0 -1-1z" fill="#c4a2fc"/><g fill="#151a6a"><path d="m40.472 36a3.008 3.008 0 0 0 2.895-2.21l4.909-18a3 3 0 0 0 -2.9-3.79h-34.304l-1.765-8.6a3.009 3.009 0 0 0 -2.938-2.4h-4.369a1 1 0 0 0 0 2h4.369a1 1 0 0 1 .979.8l7.017 34.206a5.017 5.017 0 0 0 4.898 3.994h25.737a1 1 0 0 0 0-2h-25.737a3.011 3.011 0 0 1 -2.939-2.4l-.324-1.6zm-27.554-15h5.805l.545 6h-5.119zm7.814 0h7.268v6h-6.723zm22.413 6h-4.413l.545-6h5.5zm-6.422 0h-6.723v-6h7.268zm-.182 2-.454 5h-6.087v-5zm-6.541-10v-5h7.905l-.455 5zm-2 0h-7.45l-.45-5h7.9zm0 10v5h-6.087l-.454-5zm12.472 5h-2.372l.455-5h4.045l-1.163 4.263a1 1 0 0 1 -.965.737zm5.874-18.737-1.019 3.737h-5.868l.454-5h5.468a1 1 0 0 1 .965 1.263zm-28.259-1.263.454 5h-6.033l-1.026-5zm-3.528 15h4.891l.455 5h-4.32z"/><path d="m22 43a4 4 0 1 0 4 4 4 4 0 0 0 -4-4zm0 6a2 2 0 1 1 2-2 2 2 0 0 1 -2 2z"/><path d="m39 43a4 4 0 1 0 4 4 4 4 0 0 0 -4-4zm0 6a2 2 0 1 1 2-2 2 2 0 0 1 -2 2z"/></g></svg>