<?xml version="1.0" encoding="iso-8859-1"?>
<!-- Generator: Adobe Illustrator 19.0.0, SVG Export Plug-In . SVG Version: 6.00 Build 0)  -->
<svg xmlns="http://www.w3.org/2000/svg" xmlns:xlink="http://www.w3.org/1999/xlink" version="1.1" id="Layer_1" x="0px" y="0px" viewBox="0 0 512.133 512.133" style="enable-background:new 0 0 512.133 512.133;" xml:space="preserve" width="512" height="512">
<linearGradient id="SVGID_1_" gradientUnits="userSpaceOnUse" x1="256.0664" y1="-4.456524e-011" x2="256.0664" y2="512.1328">
	<stop offset="0" style="stop-color:#2AF598"/>
	<stop offset="1" style="stop-color:#009EFD"/>
</linearGradient>
<path style="fill:url(#SVGID_1_);" d="M341.066,412.777l-42.643,41.279L308.431,512l-52.365-27.339L203.702,512l10.007-57.944  l-42.643-41.279l58.906-8.5l26.094-52.506l26.094,52.506L341.066,412.777z M512.066,412.91l-58.906-8.5l-26.094-52.506  l-26.094,52.506l-58.906,8.5l42.643,41.279l-10.007,57.944l52.365-27.339l52.365,27.339l-10.007-57.944L512.066,412.91z   M111.161,403.833L85.066,351.29l-26.094,52.543l-58.906,8.506l42.643,41.307l-10.007,57.985l52.365-27.358l52.365,27.358  l-10.007-57.985l42.643-41.307L111.161,403.833z M114.681,327.464l-38.478-10.931c10.955-38.563,34.597-73.301,66.572-97.814  c13.03-9.989,27.07-18.112,41.854-24.299c-24.163-20.194-39.563-50.541-39.563-84.421c0-60.654,49.346-110,110-110  s110,49.346,110,110c0,33.268-14.847,63.131-38.26,83.319c15.603,6.242,30.407,14.623,44.101,25.056  c31.877,24.286,55.565,58.749,66.701,97.039l-38.409,11.17C380.948,263.829,322.501,220,257.066,220  C191.206,220,132.655,264.19,114.681,327.464z M185.066,110c0,38.598,31.402,70,70,70s70-31.402,70-70s-31.402-70-70-70  S185.066,71.402,185.066,110z"/>















</svg>
